<?xml version="1.0" encoding="UTF-8"?><svg id="Capa_1" xmlns="http://www.w3.org/2000/svg" viewBox="0 0 226.77 141.73"><defs><style>.cls-1{fill:#003070;}.cls-2{fill:#fff;}.cls-3{fill:#f5333f;}</style></defs><path class="cls-3" d="M0,70.86C0,31.73,50.76,0,113.39,0s113.38,31.73,113.38,70.86-50.76,70.87-113.38,70.87S0,110,0,70.86"/><path class="cls-2" d="M5.03,70.86C5.03,34.41,53.54,4.86,113.39,4.86s108.35,29.56,108.35,66.01-48.51,66.01-108.35,66.01S5.03,107.32,5.03,70.86"/><path class="cls-1" d="M46.73,35.86s-1.14-2.79,1.71-4.04c0,0,3.65-2.33,12.59-4.55,0,0,7.35-3.94,15.35-6.32,0,0,7.5-3.25,19.13-5.5,0,0,9.5-2.38,23.75-2.88,0,0,9.34-.72,15.6-.14,0,0,1.84-2.7,6.71-4.1,0,0,4.22-1.08,6.81,.7,0,0,3.18,1.51,4.37,5.73,0,0,8.6,1.68,13.73,3.62,0,0,5.03,1.57,10.22,4.11,0,0,6.37,2.81,11.78,6.98,0,0,5.03,3.47,8.38,7.46,0,0,5.14,5.66,7.14,10.75,0,0,2.22,4.33,2.92,9.79,0,0,1.08,5.64-.38,12.6,0,0-1.84,8.69-6.17,14.96,0,0-2.87,4.81-6.98,9.14,0,0-2.58,3.26-8.91,8.33,0,0-5.89,4.64-8.54,6.1,0,0-4.33,2.6-4.76,2.81,0,0,.27,2.43-2.81,3.35,0,0-5.57,2.7-10.22,3.14,0,0-7.23,3.08-11.07,4.11,0,0-4.97,1.73-11.3,3.19,0,0-7.18,1.73-15.62,2.86,0,0-10.76,1.51-15.79,1.25,0,0-11.07,.43-18.43-.59,0,0-8.6-.92-12.33-1.89,0,0-6.77-1.14-13.68-3.57,0,0-8.8-3.19-12.43-5.3,0,0-7.95,1.19-11.73-1.4,0,0-4.76-2.23-3.3-9.14,0,0-6.21-5.94-8.21-10.42,0,0-3.24-5.46-4.11-10.71,0,0-1.51-5.91-.49-11.25,0,0,.22-4.47,2.16-9.34,0,0,1.61-4.76,4.48-9.08,0,0,3.84-6.27,9.19-11.36,0,0,6.22-6.09,9.57-8.15l1.65-1.24Z"/><path class="cls-2" d="M170.97,96.31c-.82,.83-1.23,1.82-1.23,2.99s.41,2.18,1.22,3.01c.82,.83,1.82,1.24,2.99,1.24s2.17-.42,2.99-1.24c.82-.83,1.23-1.83,1.23-3.01s-.41-2.17-1.23-2.99c-.82-.83-1.82-1.24-2.99-1.24s-2.16,.41-2.99,1.24m6.47,6.48c-.96,.96-2.12,1.45-3.48,1.45s-2.52-.48-3.47-1.45c-.95-.96-1.42-2.12-1.42-3.49s.48-2.51,1.44-3.47c.95-.95,2.11-1.43,3.46-1.43s2.52,.48,3.48,1.43c.96,.95,1.44,2.11,1.44,3.47s-.48,2.52-1.44,3.49m-2.56-5.35c-.24-.14-.62-.2-1.14-.2h-.81v1.95h.86c.4,0,.7-.04,.91-.12,.37-.15,.55-.43,.55-.84s-.12-.66-.36-.79m-1.02-.85c.67,0,1.16,.07,1.47,.19,.56,.23,.84,.69,.84,1.37,0,.48-.18,.84-.53,1.06-.19,.12-.45,.21-.78,.26,.42,.06,.73,.24,.93,.53,.2,.29,.3,.56,.3,.84v.4c0,.12,0,.26,.01,.4,0,.14,.03,.24,.05,.28l.03,.07h-.89s0-.04-.01-.05c0-.02,0-.04-.01-.06l-.02-.17v-.43c0-.62-.17-1.03-.51-1.24-.2-.11-.55-.17-1.06-.17h-.75v2.13h-.95v-5.4h1.89Z"/><path class="cls-2" d="M145.02,27.41c.27-.05,.54-.09,.82-.09,.35,0,.69,.05,1.01,.14,1.98,.64,3.3,2.56,3.27,4.86-.03,1.97-1.05,3.67-2.51,4.47-.05,.04-.12,.07-.19,.11l-.34,.14c-.31,.12-.65,.2-.99,.23-.9,.13-2.2,.14-4.08-.2-4.11-.76-5.76,6.1-5.76,6.1,0,0,2.03-14.74,8.77-15.76m-30.24,2.71c-.35-2.67,1.25-5.11,3.58-5.45,0,0,9.2-3.45,13.71,18.29,0,0-2.88-7.23-7.21-8.52-3.38-1.01-4.49,.24-6.34-.1-.56-.08-1.09-.3-1.57-.61l-.24-.13c-1.01-.79-1.74-2.02-1.94-3.48m30.12-19.09c3.15,.24,5.5,3.36,5.24,6.98-.24,3.25-2.51,5.8-5.26,6.1-1.72,.88-4.24-.73-6.9,2.09-2.69,2.86-3.67,16.53-3.67,16.53-6.02-33.68,10.59-31.69,10.59-31.69m10.47,20.55c5.47-1.69,10.55-2.53,15.25-2.53,6.16,0,9.23,1.92,9.23,5.76,0,2.45-.63,5.61-1.88,9.49-1.87,5.76-2.86,8.88-2.98,9.34l-8.14,33.48c-1.58,6.49-2.37,11.46-2.37,14.9,0,3.74,1.22,6.92,3.64,9.54-4.7,2.42-9.25,3.62-13.67,3.62-7.94,0-11.91-3-11.91-8.99,0-2.85,1.01-8.43,3.04-16.74l8.32-34.17c2.15-8.81,3.22-14.64,3.22-17.49,0-2.09-.59-4.15-1.76-6.21m-37.03,16.94c5.59-1.69,10.67-2.53,15.25-2.53,6.15,0,9.23,1.92,9.23,5.76,0,1.72-.38,3.83-1.15,6.31-6.73,21.5-10.08,36.15-10.08,43.96,0,3.78,1.22,6.96,3.64,9.54-4.7,2.42-9.25,3.62-13.67,3.62-7.94,0-11.91-3-11.91-8.99,0-5.2,1.74-13.78,5.23-25.73,3.48-11.96,5.22-20.53,5.22-25.73,0-2.09-.59-4.16-1.76-6.21m-52.22,22.5c18.83-1.26,28.25-9.02,28.25-23.3,0-7.45-4.32-11.18-12.94-11.18-1.5,0-3.87,.26-7.11,.79l-8.2,33.68Zm-2.12,8.94c-3.57,13.58-5.35,22.67-5.35,27.27,0,1.62,.42,3.2,1.27,4.72-6.03,2.15-11.44,3.23-16.22,3.23-5.63,0-8.44-1.57-8.44-4.72,0-2.12,.55-4.89,1.64-8.3,9.6-30.3,14.4-50.88,14.4-61.75,0-2.02-.59-3.94-1.76-5.76,8.67-4.67,21.4-7.01,38.21-7.01,19.4,0,29.1,6,29.1,17.99,0,9.23-4.94,16.9-14.82,23-9.88,6.06-22.56,9.84-38.03,11.33"/></svg>